<svg width="26" height="16" viewBox="0 0 26 16" fill="none" xmlns="http://www.w3.org/2000/svg">
<path d="M3.10708 15.9167C2.38236 15.9167 1.76667 15.6633 1.26 15.1567C0.753334 14.6503 0.5 14.0347 0.5 13.31V1.13043C0.5 0.833205 0.600694 0.584453 0.802083 0.384176C1.00347 0.18362 1.25347 0.0833435 1.55208 0.0833435C1.85069 0.0833435 2.09903 0.18362 2.29708 0.384176C2.49514 0.584453 2.59417 0.833205 2.59417 1.13043V13.31C2.59417 13.4595 2.64222 13.5822 2.73833 13.6783C2.83444 13.7745 2.95736 13.8225 3.10708 13.8225H8.72667C8.87611 13.8225 8.99889 13.7745 9.095 13.6783C9.19139 13.5822 9.23958 13.4595 9.23958 13.31V1.13043C9.23958 0.833205 9.34014 0.584453 9.54125 0.384176C9.74264 0.18362 9.99264 0.0833435 10.2912 0.0833435C10.5899 0.0833435 10.8382 0.18362 11.0363 0.384176C11.2343 0.584453 11.3333 0.833205 11.3333 1.13043V13.31C11.3333 14.0347 11.08 14.6503 10.5733 15.1567C10.0669 15.6633 9.45139 15.9167 8.72667 15.9167H3.10708ZM17.2733 15.9167C16.5486 15.9167 15.9331 15.6633 15.4267 15.1567C14.92 14.6503 14.6667 14.0347 14.6667 13.31V12.9788C14.6667 12.6815 14.7674 12.4326 14.9688 12.2321C15.1701 12.0318 15.4201 11.9317 15.7188 11.9317L15.9429 12.1558C16.1776 12.1667 16.3726 12.267 16.5279 12.4567C16.6829 12.6464 16.7604 12.8631 16.7604 13.1067C16.7604 13.2564 16.8086 13.4132 16.905 13.5771C17.0011 13.7407 17.1239 13.8225 17.2733 13.8225H22.8929C23.0426 13.8225 23.1656 13.7745 23.2617 13.6783C23.3578 13.5822 23.4058 13.4595 23.4058 13.31V9.56001C23.4058 9.41029 23.3578 9.28737 23.2617 9.19126C23.1656 9.09515 23.0426 9.04709 22.8929 9.04709H17.2733C16.5486 9.04709 15.9331 8.79376 15.4267 8.28709C14.92 7.78043 14.6667 7.16473 14.6667 6.44001V2.69001C14.6667 1.96529 14.92 1.34973 15.4267 0.843343C15.9331 0.336676 16.5486 0.0833435 17.2733 0.0833435H22.8929C23.6176 0.0833435 24.2333 0.336676 24.74 0.843343C25.2467 1.34973 25.5 1.96529 25.5 2.69001V3.02126C25.5 3.31848 25.3993 3.56737 25.1979 3.76793C24.9965 3.9682 24.7465 4.06834 24.4479 4.06834C24.3838 4.06834 24.3303 4.04695 24.2875 4.00418C24.2447 3.9614 24.2233 3.90807 24.2233 3.84418C23.9889 3.83334 23.794 3.73306 23.6388 3.54334C23.4835 3.35362 23.4058 3.13695 23.4058 2.89334C23.4058 2.74362 23.3578 2.58682 23.2617 2.42293C23.1656 2.25932 23.0426 2.17751 22.8929 2.17751H17.2733C17.1239 2.17751 17.0011 2.22556 16.905 2.32168C16.8086 2.41779 16.7604 2.54057 16.7604 2.69001V6.44001C16.7604 6.58973 16.8086 6.71265 16.905 6.80876C17.0011 6.90487 17.1239 6.95293 17.2733 6.95293H22.8929C23.6176 6.95293 24.2333 7.20626 24.74 7.71293C25.2467 8.21959 25.5 8.83529 25.5 9.56001V13.31C25.5 14.0347 25.2467 14.6503 24.74 15.1567C24.2333 15.6633 23.6176 15.9167 22.8929 15.9167H17.2733Z" fill="black"/>
</svg>
